<svg width="45" height="45" viewBox="0 0 45 45" fill="none" xmlns="http://www.w3.org/2000/svg">
<g clip-path="url(#clip0_573_537)">
<path d="M16.17 39.8288L13.3594 37.0182L10.095 40.2845L12.81 42.9995L10.8094 45.002L0 34.1926L2.00063 32.192L4.71563 34.907L7.98187 31.6407L5.17125 28.8301L29.4713 4.53008L39.5944 4.29758L43.8862 0.00570297L45.8625 0.219452L40.6912 5.3907L40.4587 15.5138L16.17 39.8288ZM16.17 36.6263L28.515 24.2813L20.7375 16.5038L17.595 19.6426L21.495 23.5426L19.845 25.1926L15.945 21.2926L13.0387 24.1988L16.9388 28.0988L15.2888 29.7488L11.3888 25.8488L8.4 28.8376L16.17 36.6263Z" fill="white"/>
<path d="M16.17 36.6263L28.515 24.2813L20.7375 16.5038L17.595 19.6426L21.495 23.5426L19.845 25.1926L15.945 21.2926L13.0387 24.1988L16.9388 28.0988L15.2888 29.7488L11.3888 25.8488L8.4 28.8376L16.17 36.6263Z" fill="#77C7FF"/>
</g>
<defs>
<clipPath id="clip0_573_537">
<rect width="45" height="45" fill="white" transform="matrix(1 0 0 -1 0 45)"/>
</clipPath>
</defs>
</svg>
