<svg width="39" height="45" viewBox="0 0 39 45" fill="none" xmlns="http://www.w3.org/2000/svg">
<path d="M8.31844 20.7825V43.727C8.29694 43.7594 8.22532 43.8486 8.02717 43.957C7.58605 44.1986 6.58458 44.4991 4.40922 44.4991C2.23387 44.4991 1.23239 44.1986 0.791271 43.957C0.593126 43.8486 0.521508 43.7594 0.5 43.727V21.3285C2.02314 21.8796 3.35477 21.3198 4.48429 20.845C4.54614 20.819 4.60738 20.7933 4.66801 20.768C5.36762 20.4761 5.97819 20.2428 6.59179 20.2139C7.12339 20.1889 7.68605 20.3175 8.31844 20.7825Z" fill="#77C7FF" stroke="white"/>
<mask id="path-2-inside-1_573_539" fill="white">
<path d="M0 20.6768C0 18.2417 1.97408 16.2676 4.40922 16.2676C6.84437 16.2676 8.81844 18.2417 8.81844 20.6768V21.1667H0V20.6768Z"/>
</mask>
<path d="M0 16.2676H8.81844H0ZM8.81844 21.1667H0H8.81844ZM-1 21.1667C-1 18.461 1.19342 16.2676 3.89913 16.2676H4.40922C2.52636 16.2676 1 18.2417 1 20.6768V21.1667H-1ZM4.91931 16.2676C7.62503 16.2676 9.81844 18.461 9.81844 21.1667H7.81844V20.6768C7.81844 18.2417 6.29208 16.2676 4.40922 16.2676H4.91931Z" fill="white" mask="url(#path-2-inside-1_573_539)"/>
<path d="M2.00005 17.4986C1.50005 16.9986 1.00005 15.9986 0.979911 14.2418C0.959774 12.4849 1.97122 3.14098 1.97122 3.14098C2.5 0.5 6.5 0.499779 6.90097 3.14098C6.90097 3.14098 7.8387 12.4849 7.8387 14.2418C7.8387 15.9986 7.00005 17.4986 7.00005 17.4986" stroke="white"/>
<path d="M20.5 26.499C20.5 21.5285 24.5294 17.499 29.5 17.499C34.4706 17.499 38.5 21.5285 38.5 26.499V41.999C38.5 43.3797 37.3807 44.499 36 44.499H23C21.6193 44.499 20.5 43.3797 20.5 41.999V26.499Z" stroke="white"/>
<rect x="22" y="13.999" width="15" height="5" rx="1" fill="white"/>
</svg>
