<svg width="54" height="54" viewBox="0 0 54 54" fill="none" xmlns="http://www.w3.org/2000/svg">
<path d="M46.1277 48H4V43.2632H46.1277V48ZM15.7021 21.9474C15.7021 20.7632 13.3617 19.5789 11.0213 19.5789C8.68085 19.5789 6.34043 20.7632 6.34043 21.9474C6.34043 23.1316 6.34043 38.5263 6.34043 38.5263H15.7021C15.7021 38.5263 15.7021 23.1316 15.7021 21.9474ZM29.7447 12.4737C29.7447 11.2895 27.4043 10.1053 25.0638 10.1053C22.7234 10.1053 20.383 11.2895 20.383 12.4737C20.383 13.6579 20.383 38.5263 20.383 38.5263H29.7447C29.7447 38.5263 29.7447 13.6579 29.7447 12.4737ZM43.7872 5.36842C43.7872 4.18421 41.4468 3 39.1064 3C36.766 3 34.4255 4.18421 34.4255 5.36842C34.4255 6.55263 34.4255 38.5263 34.4255 38.5263H43.7872C43.7872 38.5263 43.7872 6.55263 43.7872 5.36842Z" fill="#B5B5B5"/>
<path d="M53.4394 45.2644L51.9962 43.3466C52.0059 43.1722 51.9962 42.9882 51.9962 42.8526L53.4394 40.9251C53.5111 40.8313 53.5599 40.722 53.5818 40.6059C53.6037 40.4898 53.598 40.3702 53.5653 40.2568C53.3212 39.3638 52.9665 38.5048 52.5095 37.6997C52.4506 37.5974 52.3696 37.5096 52.2724 37.4426C52.1752 37.3755 52.0643 37.331 51.9477 37.3123L49.5747 36.9732L49.2163 36.6149L48.8773 34.2418C48.8586 34.1253 48.814 34.0144 48.747 33.9172C48.68 33.82 48.5922 33.739 48.4899 33.68C47.6848 33.2231 46.8258 32.8684 45.9328 32.6243C45.8193 32.5916 45.6997 32.5859 45.5837 32.6078C45.4676 32.6297 45.3583 32.6784 45.2645 32.7502L43.3467 34.1837H42.843L40.9252 32.7502C40.8314 32.6784 40.7221 32.6297 40.606 32.6078C40.4899 32.5859 40.3704 32.5916 40.2569 32.6243C39.3639 32.8684 38.5049 33.2231 37.6998 33.68C37.5975 33.739 37.5097 33.82 37.4427 33.9172C37.3757 34.0144 37.3311 34.1253 37.3124 34.2418L36.9734 36.6149L36.615 36.9732L34.2419 37.3123C34.1254 37.331 34.0145 37.3755 33.9173 37.4426C33.8201 37.5096 33.7391 37.5974 33.6802 37.6997C33.2232 38.5048 32.8685 39.3638 32.6244 40.2568C32.5917 40.3702 32.586 40.4898 32.6079 40.6059C32.6298 40.722 32.6786 40.8313 32.7503 40.9251L34.1935 42.8429V43.3369L32.7503 45.2644C32.6786 45.3582 32.6298 45.4675 32.6079 45.5836C32.586 45.6996 32.5917 45.8192 32.6244 45.9327C32.8685 46.8257 33.2232 47.6847 33.6802 48.4898C33.7391 48.592 33.8201 48.6799 33.9173 48.7469C34.0145 48.8139 34.1254 48.8584 34.2419 48.8772L36.615 49.2162L36.9734 49.5746L37.3124 51.9476C37.3311 52.0642 37.3757 52.1751 37.4427 52.2722C37.5097 52.3694 37.5975 52.4504 37.6998 52.5094C38.5049 52.9664 39.3639 53.3211 40.2569 53.5652C40.323 53.5843 40.3915 53.5941 40.4603 53.5942C40.6283 53.5964 40.7921 53.5418 40.9252 53.4393L42.843 52.0057H43.3467L45.2645 53.4393C45.3583 53.511 45.4676 53.5598 45.5837 53.5817C45.6997 53.6035 45.8193 53.5979 45.9328 53.5652C46.8258 53.3211 47.6848 52.9664 48.4899 52.5094C48.5922 52.4504 48.68 52.3694 48.747 52.2722C48.814 52.1751 48.8586 52.0642 48.8773 51.9476L49.2163 49.5649C49.3326 49.4487 49.4682 49.3228 49.565 49.2162L51.9477 48.8772C52.0643 48.8584 52.1752 48.8139 52.2724 48.7469C52.3696 48.6799 52.4506 48.592 52.5095 48.4898C52.9665 47.6847 53.3212 46.8257 53.5653 45.9327C53.598 45.8192 53.6037 45.6996 53.5818 45.5836C53.5599 45.4675 53.5111 45.3582 53.4394 45.2644ZM43.0948 47.3565C42.2519 47.3565 41.428 47.1066 40.7271 46.6383C40.0263 46.17 39.48 45.5044 39.1575 44.7256C38.8349 43.9469 38.7505 43.09 38.9149 42.2633C39.0794 41.4366 39.4853 40.6772 40.0813 40.0812C40.6773 39.4852 41.4367 39.0793 42.2634 38.9148C43.0901 38.7504 43.947 38.8348 44.7258 39.1573C45.5045 39.4799 46.1701 40.0262 46.6384 40.727C47.1067 41.4279 47.3566 42.2518 47.3566 43.0947C47.3566 44.225 46.9076 45.309 46.1084 46.1083C45.3091 46.9075 44.2251 47.3565 43.0948 47.3565Z" fill="#1472BA"/>
<path d="M43.0948 47.3565C42.2519 47.3565 41.428 47.1066 40.7271 46.6383C40.0263 46.17 39.48 45.5044 39.1575 44.7256C38.8349 43.9469 38.7505 43.09 38.9149 42.2633C39.0794 41.4366 39.4853 40.6772 40.0813 40.0812C40.6773 39.4852 41.4367 39.0793 42.2634 38.9148C43.0901 38.7504 43.947 38.8348 44.7258 39.1573C45.5045 39.4799 46.1701 40.0262 46.6384 40.727C47.1067 41.4279 47.3566 42.2518 47.3566 43.0947C47.3566 44.225 46.9076 45.309 46.1084 46.1083C45.3091 46.9075 44.2251 47.3565 43.0948 47.3565Z" fill="white"/>
</svg>
