<svg width="54" height="54" viewBox="0 0 54 54" fill="none" xmlns="http://www.w3.org/2000/svg">
<g clip-path="url(#clip0_573_484)">
<path d="M22.8741 4.66424C23.6338 3.90561 24.6501 3.45922 25.7227 3.41314C26.7953 3.36706 27.8462 3.72463 28.6681 4.41532L28.9428 4.66639L33.02 8.74146H38.7839C39.8663 8.74166 40.9086 9.15084 41.7021 9.88702C42.4956 10.6232 42.9816 11.632 43.0628 12.7114L43.0757 13.0333V18.7972L47.1529 22.8744C47.9121 23.6341 48.3589 24.6509 48.405 25.724C48.4511 26.7971 48.0931 27.8484 47.4018 28.6705L47.1507 28.943L43.0735 33.0202V38.7841C43.0739 39.8669 42.6649 40.9098 41.9287 41.7037C41.1925 42.4977 40.1833 42.984 39.1036 43.0652L38.7839 43.0759H33.0221L28.9449 47.1531C28.1852 47.9124 27.1684 48.3591 26.0953 48.4052C25.0222 48.4513 23.9708 48.0934 23.1488 47.4021L22.8763 47.1531L18.7991 43.0759H13.033C11.9503 43.0763 10.9074 42.6673 10.1134 41.9311C9.31948 41.1948 8.83316 40.1857 8.75195 39.106L8.74122 38.7841V33.0202L4.664 28.943C3.90477 28.1833 3.458 27.1665 3.41191 26.0934C3.36583 25.0203 3.72378 23.9689 4.41508 23.1469L4.664 22.8744L8.74122 18.7972V13.0333C8.74142 11.9509 9.1506 10.9085 9.88678 10.115C10.623 9.32153 11.6318 8.83552 12.7111 8.75434L13.033 8.74146H18.7969L22.8741 4.66424ZM25.9085 7.70284L21.8312 11.7801C21.1184 12.4918 20.178 12.9301 19.1746 13.0182L18.7969 13.0333H13.033V18.7972C13.0333 19.8055 12.6785 20.7818 12.0309 21.5547L11.7755 21.8336L7.69831 25.9108L11.7755 29.9859C12.488 30.6984 12.9271 31.6388 13.0159 32.6425L13.033 33.0202V38.7841H18.7969C19.8053 38.7839 20.7815 39.1386 21.5544 39.7862L21.8334 40.0416L25.9085 44.1188L29.9857 40.0416C30.6982 39.3291 31.6386 38.89 32.6423 38.8013L33.02 38.7841H38.7839V33.0202C38.7836 32.0119 39.1384 31.0356 39.786 30.2627L40.0414 29.9838L44.1186 25.9087L40.0414 21.8315C39.3289 21.119 38.8898 20.1785 38.801 19.1748L38.7839 18.7972V13.0333H33.02C32.0116 13.0335 31.0354 12.6787 30.2625 12.0311L29.9835 11.7758L25.9063 7.69855L25.9085 7.70284Z" fill="#B5B5B5"/>
<path d="M32.5734 19.6259C32.9595 19.2411 33.4777 19.0176 34.0227 19.001C34.5676 18.9844 35.0985 19.1758 35.5074 19.5364C35.9164 19.8969 36.1727 20.3997 36.2244 20.9424C36.2761 21.4852 36.1193 22.0272 35.7858 22.4585L35.6055 22.6603L25.1335 33.1323C24.7247 33.5416 24.1797 33.7866 23.6021 33.8206C23.0245 33.8547 22.4546 33.6754 22.0005 33.3168L21.7945 33.1344L16.6357 27.9757C16.2468 27.5904 16.0198 27.071 16.0012 26.5239C15.9827 25.9767 16.1739 25.4431 16.5359 25.0324C16.8978 24.6216 17.4031 24.3647 17.9482 24.3143C18.4934 24.2639 19.0372 24.4237 19.4683 24.7611L19.6701 24.9392L23.464 28.7332L32.5734 19.6259Z" fill="#1472BA"/>
</g>
<defs>
<clipPath id="clip0_573_484">
<rect width="54" height="54" fill="white"/>
</clipPath>
</defs>
</svg>
