<svg width="54" height="54" viewBox="0 0 54 54" fill="none" xmlns="http://www.w3.org/2000/svg">
<path fill-rule="evenodd" clip-rule="evenodd" d="M33.3 10.3789L48.3773 35.4912C50.544 39.0979 49.4798 43.8432 45.999 46.0887C44.8308 46.8451 43.469 47.2483 42.0773 47.2497H11.9205C7.82325 47.2497 4.5 43.8072 4.5 39.5569C4.5 38.1192 4.88925 36.7129 5.6205 35.4912L20.7 10.3789C22.8645 6.77218 27.441 5.66743 30.9217 7.91293C31.8847 8.53393 32.6993 9.37768 33.3 10.3789ZM27.3981 11.9154C27.721 11.97 28.0296 12.0895 28.305 12.2667H28.3073C28.6306 12.4763 28.9015 12.7572 29.0992 13.0879L44.1765 38.2047C44.5244 38.7825 44.6361 39.4722 44.4881 40.1303C44.3402 40.7883 43.944 41.3639 43.3823 41.7372C42.9908 41.9892 42.5385 42.1242 42.075 42.1242H11.9227C10.5547 42.1242 9.44775 40.9767 9.44775 39.5592C9.44723 39.0822 9.57633 38.614 9.82125 38.2047L24.8985 13.0879C25.063 12.8047 25.2831 12.5578 25.5457 12.362C25.8083 12.1662 26.1078 12.0257 26.4262 11.949C26.7446 11.8722 27.0752 11.8608 27.3981 11.9154Z" fill="#B5B5B5"/>
<path d="M27 17.9997C27.5967 17.9997 28.169 18.2367 28.591 18.6587C29.0129 19.0806 29.25 19.6529 29.25 20.2497V29.2497C29.25 29.8464 29.0129 30.4187 28.591 30.8407C28.169 31.2626 27.5967 31.4997 27 31.4997C26.4033 31.4997 25.831 31.2626 25.409 30.8407C24.9871 30.4187 24.75 29.8464 24.75 29.2497V20.2497C24.75 19.6529 24.9871 19.0806 25.409 18.6587C25.831 18.2367 26.4033 17.9997 27 17.9997Z" fill="#1472BA"/>
<path d="M27 38.2497C26.4033 38.2497 25.831 38.0126 25.409 37.5907C24.9871 37.1687 24.75 36.5964 24.75 35.9997C24.75 35.4029 24.9871 34.8306 25.409 34.4087C25.831 33.9867 26.4033 33.7497 27 33.7497C27.5967 33.7497 28.169 33.9867 28.591 34.4087C29.0129 34.8306 29.25 35.4029 29.25 35.9997C29.25 36.5964 29.0129 37.1687 28.591 37.5907C28.169 38.0126 27.5967 38.2497 27 38.2497Z" fill="#1472BA"/>
</svg>
