<svg width="54" height="54" viewBox="0 0 54 54" fill="none" xmlns="http://www.w3.org/2000/svg">
<g clip-path="url(#clip0_573_467)">
<path fill-rule="evenodd" clip-rule="evenodd" d="M35.1429 25.2144V29.8601C35.1429 30.0275 35.0843 30.1907 34.9671 30.3497C34.8499 30.5088 34.716 30.5967 34.5653 30.6134L30.673 31.2161C30.4888 31.802 30.221 32.4382 29.8694 33.1246C30.4386 33.9282 31.192 34.8908 32.1295 36.0124C32.2467 36.1966 32.3052 36.364 32.3052 36.5146C32.3052 36.7155 32.2467 36.8746 32.1295 36.9918C31.7444 37.494 31.0539 38.2432 30.0578 39.2393C29.0617 40.2354 28.4046 40.7334 28.0865 40.7334C27.9023 40.7334 27.7266 40.6748 27.5592 40.5576L24.6713 38.2976C24.0519 38.6157 23.4074 38.8751 22.7377 39.076C22.5536 40.8841 22.361 42.1815 22.1602 42.9683C22.043 43.3701 21.7919 43.571 21.4068 43.571H16.736C16.5519 43.571 16.3845 43.5082 16.2338 43.3827C16.0831 43.2571 15.9994 43.1106 15.9827 42.9432L15.4051 39.1011C14.8359 38.9337 14.2081 38.6742 13.5218 38.3227L10.5586 40.5576C10.4414 40.6748 10.274 40.7334 10.0564 40.7334C9.87221 40.7334 9.69643 40.6664 9.52902 40.5325C7.1183 38.3059 5.91295 36.9667 5.91295 36.5146C5.91295 36.364 5.97154 36.2049 6.08873 36.0375C6.25614 35.8032 6.59933 35.3595 7.1183 34.7066C7.63728 34.0537 8.03069 33.5431 8.29855 33.1748C7.9135 32.4382 7.62054 31.7518 7.41964 31.1157L3.60268 30.513C3.43527 30.4962 3.29297 30.4167 3.17578 30.2744C3.05859 30.1321 3 29.9689 3 29.7847V25.1391C3 24.9717 3.05859 24.8085 3.17578 24.6494C3.29297 24.4904 3.4269 24.4025 3.57757 24.3857L7.46987 23.7831C7.65402 23.1971 7.92188 22.561 8.27344 21.8746C7.70424 21.071 6.95089 20.1084 6.01339 18.9867C5.89621 18.8026 5.83761 18.6352 5.83761 18.4845C5.83761 18.2836 5.89621 18.1162 6.01339 17.9823C6.3817 17.48 7.06808 16.7351 8.07255 15.7473C9.07701 14.7596 9.73828 14.2658 10.0564 14.2658C10.2405 14.2658 10.4163 14.3244 10.5837 14.4415L13.4715 16.7016C14.0407 16.4003 14.6853 16.1324 15.4051 15.898C15.5893 14.09 15.7818 12.8009 15.9827 12.0308C16.0999 11.629 16.351 11.4282 16.736 11.4282H21.4068C21.591 11.4282 21.7584 11.4909 21.909 11.6165C22.0597 11.742 22.1434 11.8885 22.1602 12.0559L22.7377 15.898C23.3069 16.0654 23.9347 16.3249 24.6211 16.6765L27.5843 14.4415C27.7182 14.3244 27.8856 14.2658 28.0865 14.2658C28.2706 14.2658 28.4464 14.3327 28.6138 14.4667C31.0246 16.6932 32.2299 18.0325 32.2299 18.4845C32.2299 18.6184 32.1713 18.7775 32.0541 18.9616C31.8532 19.2295 31.5017 19.6815 30.9994 20.3177C30.4972 20.9538 30.1205 21.4561 29.8694 21.8244C30.2545 22.6279 30.5391 23.3143 30.7232 23.8835L34.5402 24.4611C34.7076 24.4946 34.8499 24.5824 34.9671 24.7247C35.0843 24.867 35.1429 25.0303 35.1429 25.2144ZM23.6166 22.9544C24.8722 24.21 25.5 25.725 25.5 27.4996C25.5 29.2741 24.8722 30.7892 23.6166 32.0448C22.361 33.3004 20.846 33.9282 19.0714 33.9282C17.2969 33.9282 15.7818 33.3004 14.5262 32.0448C13.2706 30.7892 12.6429 29.2741 12.6429 27.4996C12.6429 25.725 13.2706 24.21 14.5262 22.9544C15.7818 21.6988 17.2969 21.071 19.0714 21.071C20.846 21.071 22.361 21.6988 23.6166 22.9544Z" fill="#1472BA"/>
<path fill-rule="evenodd" clip-rule="evenodd" d="M51.2143 12.8846V16.4003C51.2143 16.6681 49.9671 16.9276 47.4727 17.1787C47.2718 17.6307 47.0206 18.066 46.7193 18.4845C47.5731 20.3763 48 21.5314 48 21.9499C48 22.0169 47.9665 22.0755 47.8996 22.1257C45.8571 23.3143 44.8192 23.9086 44.7857 23.9086C44.6518 23.9086 44.2667 23.5152 43.6306 22.7284C42.9944 21.9415 42.5592 21.3723 42.3248 21.0208C41.99 21.0543 41.7388 21.071 41.5714 21.071C41.404 21.071 41.1529 21.0543 40.8181 21.0208C40.5837 21.3723 40.1484 21.9415 39.5123 22.7284C38.8761 23.5152 38.4911 23.9086 38.3571 23.9086C38.3237 23.9086 37.2857 23.3143 35.2433 22.1257C35.1763 22.0755 35.1429 22.0169 35.1429 21.9499C35.1429 21.5314 35.5698 20.3763 36.4235 18.4845C36.1222 18.066 35.8711 17.6307 35.6702 17.1787C33.1758 16.9276 31.9286 16.6681 31.9286 16.4003V12.8846C31.9286 12.6168 33.1758 12.3573 35.6702 12.1062C35.8878 11.6207 36.139 11.1854 36.4235 10.8004C35.5698 8.90862 35.1429 7.75349 35.1429 7.33496C35.1429 7.268 35.1763 7.2094 35.2433 7.15918C35.3103 7.1257 35.6032 6.95829 36.1222 6.65695C36.6412 6.35561 37.135 6.07101 37.6038 5.80315C38.0725 5.5353 38.3237 5.40137 38.3571 5.40137C38.4911 5.40137 38.8761 5.7906 39.5123 6.56906C40.1484 7.34752 40.5837 7.91253 40.8181 8.26409C41.1529 8.23061 41.404 8.21387 41.5714 8.21387C41.7388 8.21387 41.99 8.23061 42.3248 8.26409C43.1786 7.07547 43.9487 6.13797 44.635 5.45159L44.7857 5.40137C44.8527 5.40137 45.8906 5.9873 47.8996 7.15918C47.9665 7.2094 48 7.268 48 7.33496C48 7.75349 47.5731 8.90862 46.7193 10.8004C47.0039 11.1854 47.255 11.6207 47.4727 12.1062C49.9671 12.3573 51.2143 12.6168 51.2143 12.8846ZM43.8315 12.3824C44.4676 13.0186 44.7857 13.7719 44.7857 14.6424C44.7857 15.5297 44.4718 16.2872 43.844 16.915C43.2162 17.5428 42.4587 17.8567 41.5714 17.8567C40.6842 17.8567 39.9266 17.5428 39.2988 16.915C38.671 16.2872 38.3571 15.5297 38.3571 14.6424C38.3571 13.7719 38.6752 13.0186 39.3114 12.3824C39.9475 11.7462 40.7009 11.4282 41.5714 11.4282C42.442 11.4282 43.1953 11.7462 43.8315 12.3824Z" fill="#B5B5B5"/>
<path fill-rule="evenodd" clip-rule="evenodd" d="M51.2143 38.5989V42.1145C51.2143 42.3824 49.9671 42.6419 47.4727 42.893C47.2718 43.345 47.0206 43.7803 46.7193 44.1988C47.5731 46.0905 48 47.2457 48 47.6642C48 47.7312 47.9665 47.7898 47.8996 47.84C45.8571 49.0286 44.8192 49.6229 44.7857 49.6229C44.6518 49.6229 44.2667 49.2295 43.6306 48.4427C42.9944 47.6558 42.5592 47.0866 42.3248 46.7351C41.99 46.7686 41.7388 46.7853 41.5714 46.7853C41.404 46.7853 41.1529 46.7686 40.8181 46.7351C40.5837 47.0866 40.1484 47.6558 39.5123 48.4427C38.8761 49.2295 38.4911 49.6229 38.3571 49.6229C38.3237 49.6229 37.2857 49.0286 35.2433 47.84C35.1763 47.7898 35.1429 47.7312 35.1429 47.6642C35.1429 47.2457 35.5698 46.0905 36.4235 44.1988C36.1222 43.7803 35.8711 43.345 35.6702 42.893C33.1758 42.6419 31.9286 42.3824 31.9286 42.1145V38.5989C31.9286 38.3311 33.1758 38.0716 35.6702 37.8204C35.8878 37.335 36.139 36.8997 36.4235 36.5146C35.5698 34.6229 35.1429 33.4678 35.1429 33.0492C35.1429 32.9823 35.1763 32.9237 35.2433 32.8735C35.3103 32.84 35.6032 32.6726 36.1222 32.3712C36.6412 32.0699 37.135 31.7853 37.6038 31.5174C38.0725 31.2496 38.3237 31.1157 38.3571 31.1157C38.4911 31.1157 38.8761 31.5049 39.5123 32.2833C40.1484 33.0618 40.5837 33.6268 40.8181 33.9784C41.1529 33.9449 41.404 33.9282 41.5714 33.9282C41.7388 33.9282 41.99 33.9449 42.3248 33.9784C43.1786 32.7898 43.9487 31.8523 44.635 31.1659L44.7857 31.1157C44.8527 31.1157 45.8906 31.7016 47.8996 32.8735C47.9665 32.9237 48 32.9823 48 33.0492C48 33.4678 47.5731 34.6229 46.7193 36.5146C47.0039 36.8997 47.255 37.335 47.4727 37.8204C49.9671 38.0716 51.2143 38.3311 51.2143 38.5989ZM43.8315 38.0967C44.4676 38.7328 44.7857 39.4862 44.7857 40.3567C44.7857 41.244 44.4718 42.0015 43.844 42.6293C43.2162 43.2571 42.4587 43.571 41.5714 43.571C40.6842 43.571 39.9266 43.2571 39.2988 42.6293C38.671 42.0015 38.3571 41.244 38.3571 40.3567C38.3571 39.4862 38.6752 38.7328 39.3114 38.0967C39.9475 37.4605 40.7009 37.1424 41.5714 37.1424C42.442 37.1424 43.1953 37.4605 43.8315 38.0967Z" fill="#B5B5B5"/>
</g>
<defs>
<clipPath id="clip0_573_467">
<rect width="48.2143" height="45" fill="white" transform="translate(3 5)"/>
</clipPath>
</defs>
</svg>
