<svg width="54" height="54" viewBox="0 0 54 54" fill="none" xmlns="http://www.w3.org/2000/svg">
<path d="M46.7855 25.511C48.4091 25.511 49.694 26.2409 50.5352 27.3683C51.3214 28.4245 51.6539 29.7307 51.7289 30.9368C51.8023 32.1741 51.6338 33.4138 51.2327 34.5865C50.8577 35.6739 50.224 36.7988 49.2466 37.57V49.8715C49.2475 50.3426 49.071 50.7967 48.7523 51.1436C48.4336 51.4905 47.996 51.7047 47.5266 51.7436C47.0572 51.7825 46.5903 51.6433 46.2188 51.3536C45.8474 51.0639 45.5985 50.645 45.5219 50.1803L43.9095 40.4973H43.537L41.7147 50.2165C41.6282 50.6752 41.3736 51.0852 41.0008 51.3661C40.6281 51.6471 40.1639 51.7789 39.6991 51.7358C39.2343 51.6926 38.8023 51.4777 38.4876 51.1329C38.1729 50.7881 37.9981 50.3383 37.9975 49.8715V32.0392C37.7475 32.42 37.5009 32.8029 37.2575 33.1879L37.1601 33.3416L37.1351 33.3816L37.1288 33.3929C36.9604 33.6633 36.7257 33.8864 36.4471 34.041C36.1685 34.1956 35.8551 34.2767 35.5364 34.2765H29.2869C28.7897 34.2765 28.3128 34.079 27.9612 33.7274C27.6096 33.3758 27.4121 32.8989 27.4121 32.4017C27.4121 31.9045 27.6096 31.4276 27.9612 31.076C28.3128 30.7244 28.7897 30.5268 29.2869 30.5268H34.5078C34.8115 30.0569 35.2115 29.4469 35.6314 28.8345C36.0689 28.1958 36.5514 27.5196 36.9813 26.9896C37.1901 26.7309 37.4238 26.4609 37.6588 26.2397C37.7738 26.1309 37.9337 25.9897 38.1287 25.8647C38.4728 25.6388 38.8745 25.5165 39.2861 25.5122L46.7855 25.511Z" fill="#1472BA"/>
<path d="M44.247 22.9987C45.2415 22.9987 46.1952 22.6036 46.8984 21.9004C47.6016 21.1972 47.9967 20.2435 47.9967 19.249C47.9967 18.2545 47.6016 17.3008 46.8984 16.5976C46.1952 15.8944 45.2415 15.4993 44.247 15.4993C43.2525 15.4993 42.2988 15.8944 41.5956 16.5976C40.8923 17.3008 40.4973 18.2545 40.4973 19.249C40.4973 20.2435 40.8923 21.1972 41.5956 21.9004C42.2988 22.6036 43.2525 22.9987 44.247 22.9987Z" fill="#1472BA"/>
<path d="M6.75 6.75H45.4969V12.9995H42.9971V9.2498H9.2498V37.9975H35.9814V40.4973H6.75V6.75Z" fill="#B5B5B5"/>
</svg>
