<svg width="175" height="175" viewBox="0 0 175 175" fill="none" xmlns="http://www.w3.org/2000/svg">
<path d="M109.81 34.1661V30.5809L106.225 30.1826C106.026 30.1826 104.831 29.9834 102.839 29.9834C94.6731 29.9834 88.6978 32.3735 85.3118 36.5562C82.7225 34.9628 79.1373 33.9669 74.9546 33.9669C72.9629 33.9669 71.5686 34.1661 71.5686 34.1661L67.7843 34.7636L67.9835 38.1496C68.1827 44.1249 71.1703 55.478 81.5275 55.478H81.9258V62.2499C74.3571 63.2458 67.9835 66.9154 67.9835 66.9154V69.8186H107.819V67.3205C107.819 67.3205 101.445 63.2458 93.8764 62.2499V55.8763C106.424 55.6771 109.81 41.5356 109.81 34.1661ZM87.9011 61.8516H85.9093V50.6977C85.9093 50.6977 85.511 43.9257 79.9341 43.9257C79.9341 43.9257 82.9217 45.5191 83.7184 51.2953C82.9217 51.4944 82.125 51.4944 81.5275 51.4944C72.3654 51.4944 71.967 38.1496 71.967 38.1496C71.967 38.1496 73.1621 37.9504 74.9546 37.9504C78.739 37.9504 84.9135 38.7472 86.706 44.1249C87.7019 35.162 97.8599 33.9669 102.839 33.9669C104.632 33.9669 105.827 34.1661 105.827 34.1661C105.827 34.1661 105.827 52.092 93.2789 52.092H91.8846C91.8846 48.1084 95.8681 42.1331 95.8681 42.1331C89.8929 44.1249 89.8929 51.8928 89.8929 51.8928V61.8516H87.9011Z" fill="white"/>
<path d="M87.5104 64.6489C65.1519 64.6489 47 82.8008 47 105.159C47 127.518 65.1519 145.67 87.5104 145.67C109.828 145.67 127.949 127.583 128.014 105.279C128.018 105.239 128.021 105.199 128.021 105.159C128.021 105.123 128.019 105.087 128.016 105.052C127.958 82.7425 109.833 64.6489 87.5104 64.6489ZM87.5104 67.0796C88.8805 67.0796 90.2327 67.1557 91.5663 67.2967C91.576 67.4717 91.2398 67.5924 90.2198 67.5527C89.6931 68.0129 89.8065 68.0899 87.7405 68.1587C87.3257 69.9623 82.5041 68.9284 85.6526 68.0008C90.227 66.937 84.1861 66.8981 83.1523 68.6781C86.0869 69.9396 80.8076 68.9009 79.8499 69.8205C79.2682 69.2226 77.9848 68.7324 76.5758 68.6781C80.1237 67.6169 83.8073 67.0784 87.5104 67.0796ZM116.611 80.5971C117.698 81.8853 118.697 83.244 119.604 84.6643C119.642 84.9641 119.652 85.2614 119.615 85.5555C120.136 87.1257 119.138 85.6285 119.112 85.4292C117.817 84.0891 117.325 82.3309 116.611 80.5971ZM59.0689 80.7551C59.8167 80.6497 55.794 83.9862 57.4331 83.637C59.0073 80.064 59.7875 84.2916 57.4679 84.5509C55.5558 89.272 59.9374 82.1203 59.9763 84.687C58.8055 87.1897 60.1416 88.7713 62.3956 87.6102C64.5564 86.7498 62.8258 88.9924 64.0695 88.9552C65.7547 86.638 65.2005 89.067 63.8118 90.7749C61.6178 91.7698 59.5355 90.0903 58.0707 88.8174C56.4665 92.1174 55.1855 87.4676 56.2623 86.1843C57.7093 85.7549 56.3206 84.8555 55.7462 84.149C55.9803 83.7966 56.2226 83.4498 56.4673 83.1047C56.7217 82.9159 56.8043 82.7692 56.797 82.6428C57.1001 82.2296 57.4144 81.8245 57.7336 81.4243C58.4774 80.9884 58.9044 80.7786 59.0689 80.7551ZM66.825 80.768C66.7351 82.0725 70.4466 81.6536 70.2198 83.9813C68.9664 84.8928 67.982 83.3737 66.825 83.2505C63.3322 84.4593 64.6585 81.7135 66.825 80.768ZM76.9615 81.0257C77.2597 81.0362 77.4679 81.1828 77.4987 81.5053C74.671 82.339 77.2345 85.7775 77.0093 87.9789C75.0057 88.6943 72.4989 86.9183 75.1499 85.3133C72.6909 83.4863 75.67 80.9795 76.9615 81.0257ZM115.783 84.0688C116.992 83.9367 118.325 85.9785 119.482 88.0931C118.947 84.3597 122.656 93.1885 121.132 88.1255C121.212 87.9546 121.265 87.7763 121.3 87.594C124.125 93.0177 125.597 99.044 125.59 105.159C125.59 106.847 125.469 108.506 125.256 110.134C124.792 110.204 124.769 114.462 123.988 113.38C123.315 113.952 125.753 108.868 123.97 112.029C121.169 114.938 122.727 109.914 123.779 108.513C124.552 108.934 125.222 108.071 124.782 106.046C124.466 102.756 122.946 101.717 122.173 98.7757C120.888 99.4036 122.938 103.694 122.213 105.656C121.622 108.216 120.436 114.298 118.036 113.866C116.727 110.837 118.319 116.653 117.657 117.741C118.167 118.495 121.982 119.292 121.471 116.057C122.892 112.077 122.087 115.555 121.971 117.769C123.898 119.26 118.73 121.338 120.528 119.874C119.194 119.351 118.096 120.834 116.957 120.681C115.972 121.539 115.894 119.975 116.325 119.461C119.333 118.072 114.947 118.568 115.665 117.128C116.038 113.981 113.533 111.881 112.311 109.85C111.758 105.932 115.507 108.812 115.339 110.346C119.358 108.548 117.75 103.246 115.309 100.855C116.969 97.4024 116 101.266 117.254 101.764C117.556 99.5211 118.277 98.3171 119.779 96.3896C120.76 92.9244 119.483 89.387 117.017 86.9151C118.353 85.148 114.14 84.5679 115.544 84.1239C115.623 84.0955 115.703 84.0777 115.783 84.0688ZM72.7533 94.2596C72.4 96.3783 77.2775 96.9779 75.5185 98.2912C75.051 98.4597 74.5544 98.6517 74.0456 98.527C74.3097 97.3651 70.3518 94.2102 72.7533 94.2596ZM62.6111 94.8349C62.9376 94.7668 63.4351 95.5041 63.2868 96.7931C63.854 100.042 65.019 102.947 65.5254 106.041C65.574 107.451 64.9032 106.187 64.6885 105.783C62.8371 103.259 63.1766 99.752 62.5455 96.5809C62.2076 95.4304 62.3567 94.8891 62.6103 94.8357L62.6111 94.8349ZM77.3496 98.1365C79.474 99.2043 84.0646 97.7913 86.2538 99.9197C87.7041 98.2807 86.0285 102.486 88.4867 102.719C91.162 101.702 89.7644 104.359 90.7261 106.146C92.1254 108.658 92.4519 112.507 94.9603 114.017C97.3293 110.79 95.9641 117.552 98.6111 115.3C99.1547 112.568 96.477 110.542 97.2904 107.579C98.8072 105.803 101.157 104.12 102.435 101.876C104.543 99.7042 106.477 101.347 107.615 103.469C107.464 105.572 108.495 106.289 110.238 105.107C111.145 107.878 110.089 111.508 112.649 113.552C114.716 118.314 109.962 111.575 109.069 114.462C111.018 116.309 110.487 118.137 111.83 120.058C113.107 119.836 114.46 122.492 116.387 122.386C118.134 121.803 120.616 121.895 122.231 120.804C121.181 123.133 119.899 125.35 118.404 127.421C117.212 128.5 116.273 129.77 115.396 131.091C108.445 138.563 98.5309 143.239 87.5104 143.239C78.9784 143.251 70.6916 140.385 63.9901 135.105C63.7268 133.646 64.7922 133.898 64.255 132.608C61.6137 130.025 67.5445 130.505 65.3844 127.486C64.5969 125.471 63.3443 123.012 63.9447 120.958C65.2208 118.931 67.4821 117.932 69.2192 116.202C70.3405 114.056 72.5572 112.044 72.1148 109.617C70.603 109.371 69.7547 109.865 68.0176 109.931C63.7373 108.923 69.5894 108.281 70.7521 107.384C73.4598 106.609 76.5856 105.645 78.2927 103.319C80.8068 101.767 79.3314 99.3518 77.3496 98.1365ZM122.962 105.098C123.372 105.288 123.732 108.138 122.899 109.299C122.042 110.73 121.601 107.306 122.479 106.894C122.579 105.473 122.776 105.011 122.962 105.098ZM123.822 114.777C123.902 114.763 124.008 114.93 124.166 115.371C124.184 115.345 124.196 115.339 124.214 115.314C123.947 116.294 123.64 117.261 123.296 118.216C122.796 118.586 122.334 118.768 122.533 117.724C123.666 118.323 123.48 114.842 123.822 114.777ZM71.0834 128.556C70.7804 128.592 70.4434 128.866 70.0893 129.464C66.9036 129.754 68.157 133.434 69.553 135.191C70.5819 136.633 72.3223 136.023 72.0119 134.184C73.092 132.683 72.396 128.399 71.0834 128.556Z" fill="#77C7FF"/>
<path d="M87.5104 67.0796C88.8805 67.0796 90.2327 67.1557 91.5663 67.2967C91.576 67.4717 91.2398 67.5924 90.2198 67.5527C89.6931 68.0129 89.8065 68.0899 87.7405 68.1587C87.3257 69.9623 82.5041 68.9284 85.6526 68.0008C90.227 66.937 84.1861 66.8981 83.1523 68.6781C86.0869 69.9396 80.8076 68.9009 79.8499 69.8205C79.2682 69.2226 77.9848 68.7324 76.5758 68.6781C80.1237 67.6169 83.8073 67.0784 87.5104 67.0796Z" fill="#0E5487"/>
<circle cx="87.4997" cy="104.669" r="41.5842" transform="rotate(0.122223 87.4997 104.669)" stroke="#77C7FF" stroke-width="4"/>
</svg>
