<svg width="175" height="175" viewBox="0 0 175 175" fill="none" xmlns="http://www.w3.org/2000/svg">
<path d="M89.7729 29C91.4922 29 92.8432 30.3509 92.8432 32.0703V50.4918H98.9837V35.1405C103.329 37.1517 106.97 40.4226 109.434 44.5287C111.898 48.6348 113.07 53.3866 112.8 58.1675C112.8 58.1675 117.098 59.0272 117.405 65.8432H56C56 59.0272 60.6054 58.1675 60.6054 58.1675C60.3349 53.3866 61.5076 48.6348 63.9713 44.5287C66.4349 40.4226 70.0759 37.1517 74.4216 35.1405V50.4918H80.5621V32.0703C80.5621 30.3509 81.913 29 83.6324 29" fill="white"/>
<path d="M111.686 71.9839C111.686 104.713 62.5621 104.713 62.5621 71.9839H74.8432C74.8432 88.3791 99.4053 88.3791 99.4053 71.9839M136.248 127.249V145.67H38V127.249C38 110.853 70.729 102.687 87.1242 102.687C103.519 102.687 136.248 110.853 136.248 127.249ZM124.581 127.249C124.581 123.319 105.362 114.354 87.1242 114.354C68.8868 114.354 49.667 123.319 49.667 127.249V134.003H124.581" fill="#77C7FF"/>
</svg>
