<svg width="175" height="175" viewBox="0 0 175 175" fill="none" xmlns="http://www.w3.org/2000/svg">
<path d="M5.46875 54.6873H76.5625L82.0312 65.6248H10.9375L5.46875 54.6873ZM12.7604 76.5623H83.8542L89.3229 87.4998H18.2292L12.7604 76.5623ZM131.25 134.896C137.302 134.896 142.188 130.01 142.188 123.958C142.188 117.906 137.302 113.021 131.25 113.021C125.198 113.021 120.313 117.906 120.313 123.958C120.313 130.01 125.198 134.896 131.25 134.896ZM142.188 69.2707H123.958V87.4998H156.479L142.188 69.2707ZM58.3333 134.896C64.3854 134.896 69.2708 130.01 69.2708 123.958C69.2708 117.906 64.3854 113.021 58.3333 113.021C52.2813 113.021 47.3958 117.906 47.3958 123.958C47.3958 130.01 52.2813 134.896 58.3333 134.896ZM145.833 58.3332L167.708 87.4998V123.958H153.125C153.125 136.062 143.354 145.833 131.25 145.833C119.146 145.833 109.375 136.062 109.375 123.958H80.2083C80.2083 136.062 70.3646 145.833 58.3333 145.833C46.2292 145.833 36.4583 136.062 36.4583 123.958H21.875V98.4373H36.4583V109.375H42C46.0104 104.927 51.8438 102.083 58.3333 102.083C64.8229 102.083 70.6563 104.927 74.6667 109.375H109.375V43.7498H21.875C21.875 35.6561 28.3646 29.1665 36.4583 29.1665H123.958V58.3332H145.833Z" fill="#77C7FF"/>
<path d="M5.10889 54.5H76.6089L82.6089 66H11.1089L5.10889 54.5Z" fill="white"/>
<path d="M12 76H83.5747L89.5 87.5H18L12 76Z" fill="white"/>
</svg>
