<svg width="54" height="54" viewBox="0 0 54 54" fill="none" xmlns="http://www.w3.org/2000/svg">
<g clip-path="url(#clip0_573_510)">
<path d="M15.8379 27.1606H27.6788V30.1338H15.8379V27.1606ZM15.8379 19.7275H33.5993V22.7008H15.8379V19.7275ZM15.8379 34.5936H23.2385V37.5668H15.8379V34.5936Z" fill="#B5B5B5"/>
<path fill-rule="evenodd" clip-rule="evenodd" d="M41 3H8V45H41V3ZM37 7H12V41H37V7Z" fill="#B5B5B5"/>
<path d="M53.1804 49.0138L48.9512 44.7846L45.6982 43.4407C46.7814 41.9004 47.3616 40.0628 47.3596 38.1798C47.3596 33.118 43.2415 29 38.1798 29C33.118 29 29 33.118 29 38.1798C29 43.2415 33.118 47.3596 38.1798 47.3596C40.0792 47.3617 41.9319 46.7714 43.48 45.6708L44.8205 48.9151L49.0495 53.1444C49.3207 53.4157 49.6427 53.6308 49.997 53.7776C50.3514 53.9244 50.7312 54 51.1148 54C51.4984 54 51.8782 53.9245 52.2326 53.7777C52.587 53.6309 52.909 53.4158 53.1802 53.1446C53.4515 52.8733 53.6666 52.5513 53.8134 52.197C53.9602 51.8426 54.0358 51.4628 54.0358 51.0792C54.0358 50.6956 53.9603 50.3158 53.8135 49.9614C53.6667 49.607 53.4516 49.285 53.1804 49.0138ZM30.669 38.1798C30.669 34.0384 34.0384 30.669 38.1798 30.669C42.3211 30.669 45.6905 34.0384 45.6905 38.1798C45.6905 42.3211 42.3211 45.6905 38.1798 45.6905C34.0384 45.6905 30.669 42.3211 30.669 38.1798ZM52.0001 51.9643C51.7651 52.1987 51.4468 52.3303 51.1149 52.3303C50.783 52.3303 50.4647 52.1987 50.2297 51.9643L46.2359 47.9704L44.9897 44.9539L48.0063 46.2001L52.0002 50.194C52.2346 50.4289 52.3662 50.7473 52.3662 51.0791C52.3661 51.411 52.2345 51.7293 52.0001 51.9643Z" fill="#1472BA"/>
<path d="M30.669 38.1798C30.669 34.0384 34.0384 30.669 38.1798 30.669C42.3211 30.669 45.6905 34.0384 45.6905 38.1798C45.6905 42.3211 42.3211 45.6905 38.1798 45.6905C34.0384 45.6905 30.669 42.3211 30.669 38.1798Z" fill="white"/>
<path d="M52.0001 51.9643C51.7651 52.1987 51.4468 52.3303 51.1149 52.3303C50.783 52.3303 50.4647 52.1987 50.2297 51.9643L46.2359 47.9704L44.9897 44.9539L48.0063 46.2001L52.0002 50.194C52.2346 50.4289 52.3662 50.7473 52.3662 51.0791C52.3661 51.411 52.2345 51.7293 52.0001 51.9643Z" fill="#1472BA"/>
<rect x="16" y="12" width="19" height="3" fill="#B5B5B5"/>
</g>
<defs>
<clipPath id="clip0_573_510">
<rect width="54" height="54" fill="white"/>
</clipPath>
</defs>
</svg>
