<svg width="175" height="175" viewBox="0 0 175 175" fill="none" xmlns="http://www.w3.org/2000/svg">
<g clip-path="url(#clip0_573_428)">
<path d="M69.2755 101.416C67.605 99.1999 64.4373 98.7442 62.2152 100.41C59.9931 102.076 59.5361 105.235 61.2066 107.45L67.211 115.434C67.9674 116.44 67.8571 117.838 66.9746 118.718L64.9574 120.73C63.9015 121.783 62.1837 121.704 61.2381 120.557L47.0861 103.616V80.2945C47.0861 77.5129 44.8325 75.2656 42.043 75.2656C39.2536 75.2656 37 77.5129 37 80.2945V114.617C37 116.33 37.5831 117.995 38.6547 119.331L55.0604 140.437C55.8484 141.458 56.3842 142.621 56.6994 143.847C56.9831 144.931 57.9759 145.67 59.1106 145.67H79.8659C81.2527 145.67 82.3874 144.538 82.3874 143.156V125.554C82.3874 121.201 80.969 116.974 78.353 113.485L69.2755 101.416ZM132.818 75.2656C130.028 75.2656 127.775 77.5129 127.775 80.2945V103.616L113.623 120.557C112.677 121.688 110.944 121.767 109.904 120.73L107.886 118.718C107.004 117.838 106.893 116.44 107.65 115.434L113.654 107.45C115.325 105.235 114.868 102.076 112.646 100.41C110.424 98.7442 107.256 99.1999 105.585 101.416L96.5079 113.485C93.8919 116.974 92.4735 121.201 92.4735 125.554V143.156C92.4735 144.538 93.6082 145.67 94.995 145.67H115.75C116.869 145.67 117.878 144.931 118.162 143.847C118.477 142.621 119.013 141.458 119.8 140.437L136.206 119.331C137.278 117.995 137.861 116.33 137.861 114.617V80.2945C137.861 77.5129 135.607 75.2656 132.818 75.2656Z" fill="#77C7FF"/>
</g>
<path d="M100.028 55.4018C111.763 61.2688 114.696 81.8034 114.696 81.8034C114.696 81.8034 117.63 93.5374 100.028 93.5374H76.5604C58.9593 93.5374 61.8928 81.8034 61.8928 81.8034C61.8928 81.8034 64.8263 61.2688 76.5604 55.4018H100.028ZM94.1615 40.7342L88.2944 34.8672L82.4274 40.7342L70.6934 34.8672L76.5604 49.5348H100.028L105.896 34.8672L94.1615 40.7342Z" fill="white"/>
<g clip-path="url(#clip1_573_428)">
<path d="M94.3605 69.9856C94.6209 69.9856 94.832 69.7745 94.832 69.5142V67.9426C94.832 67.6823 94.6209 67.4712 94.3605 67.4712H82.7312C82.4709 67.4712 82.2598 67.6823 82.2598 67.9426V69.7007C82.2598 69.9611 82.4709 70.1722 82.7312 70.1722H86.0817C87.1546 70.1722 87.9778 70.5634 88.4771 71.2429H82.7312C82.4709 71.2429 82.2598 71.4539 82.2598 71.7143V73.2858C82.2598 73.5462 82.4709 73.7573 82.7312 73.7573H88.9685C88.7242 75.175 87.6735 76.0608 86.0314 76.0608H82.7312C82.4709 76.0608 82.2598 76.2719 82.2598 76.5323V78.615C82.2598 78.7466 82.3148 78.8722 82.4115 78.9615L88.896 84.9473C88.9831 85.0276 89.0973 85.0723 89.2158 85.0723H92.4595C92.8887 85.0723 93.0946 84.5455 92.7793 84.2544L86.8514 78.7825C89.8569 78.6905 92.0038 76.6847 92.2857 73.7573H94.3605C94.6209 73.7573 94.832 73.5462 94.832 73.2858V71.7143C94.832 71.4539 94.6209 71.2429 94.3605 71.2429H92.0547C91.9177 70.7894 91.7294 70.3688 91.4948 69.9856H94.3605Z" fill="#1472BA"/>
</g>
<defs>
<clipPath id="clip0_573_428">
<rect width="100.861" height="80.4621" fill="white" transform="translate(37 65.208)"/>
</clipPath>
<clipPath id="clip1_573_428">
<rect width="12.5722" height="20.1155" fill="white" transform="translate(82.2598 66.2139)"/>
</clipPath>
</defs>
</svg>
