<svg width="54" height="54" viewBox="0 0 54 54" fill="none" xmlns="http://www.w3.org/2000/svg">
<path d="M8.57544 50C7.33794 50 6.27894 49.5597 5.39844 48.6792C4.51644 47.7972 4.07544 46.7375 4.07544 45.5V36.5H8.57544V45.5H17.5754V50H8.57544ZM4.07544 18.5V9.5C4.07544 8.2625 4.51644 7.20275 5.39844 6.32075C6.27894 5.44025 7.33794 5 8.57544 5H17.5754V9.5H8.57544V18.5H4.07544ZM35.5754 50V45.5H44.5754V36.5H49.0754V45.5C49.0754 46.7375 48.6352 47.7972 47.7547 48.6792C46.8727 49.5597 45.8129 50 44.5754 50H35.5754ZM44.5754 18.5V9.5H35.5754V5H44.5754C45.8129 5 46.8727 5.44025 47.7547 6.32075C48.6352 7.20275 49.0754 8.2625 49.0754 9.5V18.5H44.5754Z" fill="#B5B5B5"/>
<path d="M21.9371 24.5583C23.2301 25.8528 24.8329 26.5 26.7454 26.5C28.6204 26.5 30.2141 25.8528 31.5266 24.5583C32.8391 23.2653 33.4954 21.6625 33.4954 19.75C33.4954 17.875 32.8391 16.2813 31.5266 14.9688C30.2141 13.6563 28.6204 13 26.7454 13C24.8329 13 23.2301 13.6563 21.9371 14.9688C20.6426 16.2813 19.9954 17.875 19.9954 19.75C19.9954 21.6625 20.6426 23.2653 21.9371 24.5583Z" fill="#1472BA"/>
<path d="M13.2454 35.725V40H40.2454V35.725C40.2454 34.9375 40.0489 34.1973 39.6559 33.5042C39.2614 32.8097 38.7266 32.2563 38.0516 31.8438C36.3266 30.8312 34.5176 30.0625 32.6246 29.5375C30.7301 29.0125 28.7704 28.75 26.7454 28.75C24.7204 28.75 22.7606 29.0125 20.8661 29.5375C18.9731 30.0625 17.1641 30.8312 15.4391 31.8438C14.7641 32.2563 14.2301 32.8097 13.8371 33.5042C13.4426 34.1973 13.2454 34.9375 13.2454 35.725Z" fill="#1472BA"/>
</svg>
