<svg width="88" height="88" viewBox="0 0 88 88" fill="none" xmlns="http://www.w3.org/2000/svg">
<g clip-path="url(#clip0_851_437)">
<path d="M44 70.3998C61.6 70.3998 66 52.7998 66 52.7998H22C22 52.7998 26.4 70.3998 44 70.3998Z" fill="white"/>
<path d="M44 88C68.2616 88 88 68.2616 88 44C88 19.7384 68.2616 0 44 0C19.7384 0 0 19.7384 0 44C0 68.2616 19.7384 88 44 88ZM44 8.8C63.4084 8.8 79.2 24.5916 79.2 44C79.2 63.4084 63.4084 79.2 44 79.2C24.5916 79.2 8.8 63.4084 8.8 44C8.8 24.5916 24.5916 8.8 44 8.8Z" fill="white"/>
<path d="M28.754 46.7896L37.774 37.6244C38.3875 37.011 38.8727 36.2816 39.2013 35.4788C39.5299 34.6759 39.6953 33.8156 39.688 32.9482C39.6806 32.0807 39.5006 31.2234 39.1583 30.4262C38.8161 29.6291 38.3186 28.908 37.6948 28.3052C36.4931 27.1112 34.8758 26.4287 33.1819 26.4008C31.4881 26.3729 29.8492 27.0018 28.6088 28.1556C27.3499 27.0165 25.6977 26.4111 24.0009 26.4669C22.3041 26.5227 20.6953 27.2355 19.514 28.4548C16.9356 31.0948 16.9664 35.1868 19.5976 37.7696L28.754 46.7896ZM59.554 46.7896L68.574 37.6244C69.1875 37.011 69.6727 36.2816 70.0013 35.4788C70.3299 34.6759 70.4953 33.8156 70.488 32.9482C70.4806 32.0807 70.3006 31.2234 69.9583 30.4262C69.6161 29.6291 69.1186 28.908 68.4948 28.3052C67.2931 27.1112 65.6758 26.4287 63.9819 26.4008C62.2881 26.3729 60.6492 27.0018 59.4088 28.1556C58.1502 27.0147 56.4974 26.4076 54.7996 26.4626C53.1017 26.5176 51.4917 27.2304 50.3096 28.4504C47.7312 31.0904 47.762 35.1824 50.3932 37.7652L59.554 46.7896Z" fill="white"/>
</g>
<defs>
<clipPath id="clip0_851_437">
<rect width="88" height="88" fill="white"/>
</clipPath>
</defs>
</svg>
