<svg width="88" height="88" viewBox="0 0 88 88" fill="none" xmlns="http://www.w3.org/2000/svg">
<g clip-path="url(#clip0_851_446)">
<path fill-rule="evenodd" clip-rule="evenodd" d="M25.0782 70.3982C25.4628 69.7488 25.8289 69.4514 26.158 69.4118C27.5836 69.241 28.3395 73.8945 27.1665 75.5251C27.5035 77.5218 25.6133 78.1845 24.4957 76.6181C22.9794 74.7103 21.6181 70.7133 25.0782 70.3982Z" fill="white"/>
<path fill-rule="evenodd" clip-rule="evenodd" d="M44 0C19.7155 0 0 19.7155 0 44C0 68.2845 19.7155 88 44 88C68.2405 88 87.9217 68.3549 87.993 44.1302C87.9975 44.087 87.9998 44.0435 88 44C88 43.9609 87.9982 43.9219 87.9947 43.883C87.9314 19.6522 68.2458 0 44 0ZM48.4053 2.87584C46.9568 2.72272 45.4881 2.64 44 2.64C39.9778 2.63872 35.977 3.22362 32.1235 4.37624C33.6538 4.4352 35.0478 4.9676 35.6796 5.61704C36.7198 4.61824 42.4538 5.7464 39.2665 4.37624C40.3894 2.44288 46.9506 2.48512 41.9822 3.64056C38.5625 4.64816 43.7994 5.77104 44.2499 3.81216C46.4939 3.73736 46.3707 3.65376 46.9427 3.15392C48.0506 3.19704 48.4158 3.06592 48.4053 2.87584ZM78.8577 21.7395C77.8731 20.1969 76.7874 18.7211 75.6078 17.3219C76.3831 19.2051 76.9173 21.1147 78.3235 22.5702C78.3517 22.7867 79.4359 24.413 78.87 22.7075C78.9105 22.3881 78.899 22.0651 78.8577 21.7395ZM11.3318 20.6237C9.55152 21.003 13.9207 17.3791 13.1085 17.4935C12.9298 17.519 12.4661 17.747 11.6582 18.2204C11.3115 18.6551 10.9701 19.0951 10.641 19.5439C10.6489 19.6812 10.5591 19.8405 10.2828 20.0455C10.017 20.4204 9.75392 20.797 9.4996 21.1798C10.1235 21.9472 11.6318 22.924 10.0602 23.3904C8.89064 24.7843 10.2819 29.8346 12.0243 26.2504C13.6154 27.6329 15.877 29.4571 18.26 28.3765C19.7683 26.5214 20.3702 23.8832 18.5398 26.4C17.189 26.4405 19.0687 24.0046 16.7218 24.9392C14.2736 26.2002 12.8225 24.4825 14.0941 21.7642C14.0518 18.9763 9.2928 26.7441 11.3696 21.6163C13.889 21.3347 13.0416 16.7429 11.3318 20.6237ZM25.2199 20.9977C25.4663 18.4694 21.435 18.9244 21.5327 17.5076C19.1796 18.5346 17.739 21.5169 21.5327 20.2039C22.7894 20.3377 23.8586 21.9877 25.2199 20.9977ZM33.1258 18.3084C33.0924 17.9582 32.8662 17.7989 32.5424 17.7874C31.1397 17.7373 27.9039 20.46 30.5747 22.4444C27.6954 24.1877 30.4181 26.1166 32.5943 25.3396C32.839 22.9486 30.0546 19.2139 33.1258 18.3084ZM78.7257 25.4637C77.469 23.1669 76.0214 20.9493 74.7085 21.0927C74.6214 21.1024 74.5342 21.1218 74.448 21.1526C72.9238 21.6348 77.4998 22.2649 76.0478 24.1842C78.7266 26.869 80.1134 30.7111 79.0487 34.4749C77.4171 36.5684 76.6339 37.8761 76.3057 40.3119C74.9434 39.7716 75.9959 35.5749 74.1937 39.3246C76.8442 41.9223 78.591 47.681 74.2262 49.6338C74.4084 47.967 70.3366 44.8395 70.9368 49.0943C72.2638 51.3005 74.9848 53.5814 74.58 56.9994C73.7994 58.564 78.5638 58.0254 75.2963 59.5338C74.8282 60.0917 74.9135 61.791 75.9827 60.859C77.22 61.0254 78.4133 59.4141 79.8618 59.9826C77.909 61.5718 83.5217 59.3155 81.429 57.6963C81.5549 55.2913 82.4296 51.5134 80.8861 55.8369C81.4414 59.3498 77.2974 58.4848 76.7439 57.6655C77.4629 56.4837 75.7328 50.167 77.1549 53.4565C79.7623 53.9255 81.0498 47.3202 81.6922 44.5394C82.4798 42.4081 80.2525 37.7485 81.6482 37.0665C82.4877 40.2609 84.1386 41.3899 84.4818 44.9627C84.9605 47.1627 84.2327 48.0999 83.3923 47.6423C82.2501 49.1638 80.5578 54.6207 83.6 51.4615C85.5369 48.0278 82.889 53.5498 83.6202 52.9285C84.4677 54.1042 84.4932 49.4789 84.9974 49.4032C85.228 47.6344 85.36 45.833 85.36 44C85.3675 37.3579 83.7689 30.8124 80.7004 24.9216C80.6626 25.1196 80.6045 25.3132 80.5182 25.4989C82.1726 30.998 78.1449 21.4086 78.7257 25.4637ZM30.9751 36.5402C32.8856 35.1138 27.588 34.4626 27.9717 32.1614C25.3634 32.1077 29.6622 35.5344 29.3753 36.7963C29.9279 36.9318 30.4674 36.7233 30.9751 36.5402ZM17.6898 34.9131C17.8508 33.513 17.3105 32.7122 16.9558 32.7862L16.955 32.787C16.6795 32.8451 16.5176 33.433 16.8846 34.6826C17.5701 38.1269 17.2014 41.9364 19.2122 44.6776L19.2139 44.6808C19.4489 45.1225 20.1739 46.4849 20.1212 44.9574C19.5712 41.5967 18.3058 38.4419 17.6898 34.9131ZM42.6351 38.309C40.2574 35.9973 35.2713 37.532 32.9639 36.3722C35.1164 37.6922 36.7189 40.3154 33.9882 42.0015C32.1341 44.5271 28.739 45.5743 25.7981 46.4165C24.5353 47.3906 18.179 48.0876 22.8281 49.1823C24.7148 49.111 25.6362 48.5742 27.2782 48.8418C27.7587 51.4782 25.351 53.6633 24.1331 55.9935C22.2464 57.8732 19.7903 58.9582 18.4043 61.16C17.7522 63.3908 19.1127 66.0616 19.9681 68.2502C22.3142 71.529 15.8726 71.0072 18.7414 73.8135C19.3248 75.2145 18.1676 74.9408 18.4536 76.5248C25.7324 82.2603 34.733 85.3732 44 85.36C55.9698 85.36 66.7383 80.2806 74.2878 72.1653C75.24 70.7309 76.2599 69.351 77.5553 68.1798C79.1788 65.9296 80.5713 63.5215 81.7115 60.9919C79.9577 62.1773 77.2614 62.0778 75.3641 62.7106C73.2706 62.8258 71.801 59.9412 70.4141 60.1823C68.9559 58.0958 69.5323 56.1106 67.4159 54.1042C68.3857 50.9687 73.5486 58.2877 71.3038 53.1159C68.5238 50.8957 69.6705 46.9533 68.6849 43.9437C66.792 45.2267 65.6726 44.4479 65.8363 42.1643C64.5999 39.8596 62.5002 38.075 60.2105 40.4334C58.8218 42.871 56.2698 44.6987 54.6225 46.6277C53.739 49.8458 56.6474 52.0467 56.0569 55.0141C53.1819 57.4605 54.6647 50.116 52.0916 53.6202C49.3671 51.9807 49.0125 47.7998 47.4927 45.0718C46.4482 43.1306 47.9662 40.245 45.0604 41.3494C42.3905 41.0969 44.2103 36.5288 42.6351 38.309ZM82.4366 48.4959C83.3413 47.2358 82.9506 44.1399 82.5053 43.9331C82.3029 43.839 82.0891 44.3406 81.9808 45.8841C81.0269 46.3311 81.5065 50.05 82.4366 48.4959ZM83.813 55.0915C83.6414 54.6119 83.5261 54.4306 83.4398 54.4465C83.0676 54.5169 83.27 58.2974 82.0398 57.647C81.8233 58.7805 82.3249 58.5834 82.8678 58.1812C83.2423 57.1446 83.5749 56.0933 83.8649 55.0299C83.8455 55.0563 83.8323 55.0634 83.813 55.0915Z" fill="white"/>
</g>
<defs>
<clipPath id="clip0_851_446">
<rect width="88" height="88" fill="white"/>
</clipPath>
</defs>
</svg>
