<svg width="88" height="88" viewBox="0 0 88 88" fill="none" xmlns="http://www.w3.org/2000/svg">
<g clip-path="url(#clip0_851_431)">
<path fill-rule="evenodd" clip-rule="evenodd" d="M31.6213 77.8876L26.125 72.3912L19.7413 78.7786L25.0507 84.0879L21.1383 88.0039L0 66.8656L3.91233 62.9532L9.22167 68.2626L15.609 61.8752L10.1127 56.3789L57.6327 8.85891L77.429 8.40424L85.822 0.0112381L89.6867 0.429237L79.574 10.5419L79.1193 30.3382L31.6213 77.8876ZM55.7627 47.4836L31.6213 71.6249L16.4267 56.3936L22.2713 50.5489L29.898 58.1756L33.1247 54.9489L25.498 47.3222L31.1813 41.6389L38.808 49.2656L42.0347 46.0389L34.408 38.4122L40.5533 32.2742L55.7627 47.4836Z" fill="white"/>
</g>
<defs>
<clipPath id="clip0_851_431">
<rect width="88" height="88" fill="white" transform="matrix(1 0 0 -1 0 88)"/>
</clipPath>
</defs>
</svg>
