<svg width="148" height="148" viewBox="0 0 148 148" fill="none" xmlns="http://www.w3.org/2000/svg">
<path d="M135.527 71.0574C131.91 63.7614 127.121 57.1077 121.352 51.361C108.469 38.5285 92.2547 31.7144 74.3488 31.7144C56.443 31.7144 40.2283 38.5285 27.3461 51.361C21.5763 57.1077 16.7877 63.7614 13.1707 71.0574C12.8505 71.83 12.6857 72.6582 12.6857 73.4946C12.6857 74.3309 12.8505 75.1591 13.1707 75.9317C16.7877 83.2277 21.5763 89.8814 27.3461 95.6281C40.2283 108.461 56.443 115.275 74.3488 115.275C92.2547 115.275 108.469 108.461 121.352 95.6281C127.121 89.8814 131.91 83.2277 135.527 75.9317C135.847 75.1591 136.012 74.3309 136.012 73.4946C136.012 72.6582 135.847 71.83 135.527 71.0574ZM112.598 87.4711C101.954 98.0156 89.0714 103.338 74.3488 103.338C59.6263 103.338 46.7441 98.0156 36.1 87.4711C31.9041 83.3188 28.2901 78.6172 25.3566 73.4946C28.2771 68.3633 31.8924 63.66 36.1 59.5181C46.7441 48.9736 59.6263 43.6516 74.3488 43.6516C89.0714 43.6516 101.954 48.9736 112.598 59.5181C116.794 63.6704 120.408 68.3719 123.341 73.4946C120.408 78.6172 116.794 83.3188 112.598 87.4711Z" fill="#B5B5B5"/>
<path d="M74.9116 53.418C79.176 53.4196 83.3312 54.767 86.7851 57.2682C90.2391 59.7694 92.8155 63.2968 94.1475 67.348C95.4795 71.3991 95.499 75.7672 94.2032 79.83C92.9075 83.8929 90.3626 87.4432 86.9312 89.9751C83.4997 92.5071 79.3567 93.8915 75.0924 93.9312C70.8282 93.9709 66.6601 92.6639 63.1821 90.1962C59.7041 87.7286 57.0936 84.2263 55.7224 80.1883C54.3513 76.1503 54.2895 71.7825 55.5458 67.7073C56.4935 69.825 58.1398 71.553 60.2092 72.6021C62.2786 73.6511 64.6455 73.9576 66.9138 73.4703C69.1822 72.9829 71.2143 71.7313 72.6702 69.9248C74.1261 68.1183 74.9173 65.8666 74.9116 63.5465C74.9121 61.5956 74.3492 59.6861 73.2905 58.0474C72.2319 56.4088 70.7225 55.1107 68.9438 54.3093C70.8775 53.7165 72.889 53.4161 74.9116 53.418Z" fill="#1472BA"/>
</svg>
