<svg width="148" height="148" viewBox="0 0 148 148" fill="none" xmlns="http://www.w3.org/2000/svg">
<path fill-rule="evenodd" clip-rule="evenodd" d="M50.4012 17.0276C57.8829 13.9286 65.9018 12.3335 74 12.3335C81.1533 12.3335 88.245 13.6285 94.9667 16.0335L85.0383 25.9618C81.4 25.0985 77.7 24.6668 74 24.6668C60.916 24.6668 48.3679 29.8644 39.1161 39.1162C29.8643 48.368 24.6667 60.9161 24.6667 74.0002C24.6667 87.0842 29.8643 99.6323 39.1161 108.884C48.3679 118.136 60.916 123.333 74 123.333C87.084 123.333 99.6322 118.136 108.884 108.884C118.136 99.6323 123.333 87.0842 123.333 74.0002C123.333 70.3002 122.902 66.6002 122.038 62.9618L131.905 53.0952C134.372 59.7552 135.667 66.8468 135.667 74.0002C135.667 90.3552 129.17 106.04 117.605 117.605C106.04 129.17 90.355 135.667 74 135.667C65.9018 135.667 57.8829 134.072 50.4012 130.973C42.9195 127.874 36.1214 123.331 30.3951 117.605C18.8303 106.04 12.3333 90.3552 12.3333 74.0002C12.3333 57.6451 18.8303 41.96 30.3951 30.3952C36.1214 24.669 42.9195 20.1266 50.4012 17.0276ZM47.8371 47.8372C54.7759 40.8984 64.187 37.0002 74 37.0002V49.3335C67.458 49.3335 61.1839 51.9323 56.558 56.5582C51.9321 61.1841 49.3333 67.4582 49.3333 74.0002C49.3333 80.5422 51.9321 86.8162 56.558 91.4421C61.1839 96.068 67.458 98.6668 74 98.6668C80.542 98.6668 86.8161 96.068 91.442 91.4421C96.0679 86.8162 98.6667 80.5422 98.6667 74.0002H111C111 83.8132 107.102 93.2243 100.163 100.163C93.2241 107.102 83.813 111 74 111C64.187 111 54.7759 107.102 47.8371 100.163C40.8982 93.2243 37 83.8132 37 74.0002C37 64.1872 40.8982 54.7761 47.8371 47.8372Z" fill="#B5B5B5"/>
<path d="M117.167 12.3335L92.5 37.0002V46.2502L76.775 61.9752C75.85 61.6668 74.925 61.6668 74 61.6668C70.729 61.6668 67.592 62.9662 65.279 65.2792C62.9661 67.5921 61.6667 70.7292 61.6667 74.0002C61.6667 77.2712 62.9661 80.4082 65.279 82.7211C67.592 85.0341 70.729 86.3335 74 86.3335C77.271 86.3335 80.408 85.0341 82.721 82.7211C85.0339 80.4082 86.3333 77.2712 86.3333 74.0002C86.3333 73.0752 86.3333 72.1502 86.025 71.2252L101.75 55.5002H111L135.667 30.8335H117.167V12.3335Z" fill="#1472BA"/>
</svg>
