<svg width="88" height="88" viewBox="0 0 88 88" fill="none" xmlns="http://www.w3.org/2000/svg">
<g clip-path="url(#clip0_851_452)">
<path d="M62.579 32.4211C62.579 57.1074 25.5263 57.1074 25.5263 32.4211H34.7895C34.7895 44.7874 53.3158 44.7874 53.3158 32.4211M81.1053 74.1053V88H7V74.1053C7 61.7389 31.6863 55.5789 44.0526 55.5789C56.419 55.5789 81.1053 61.7389 81.1053 74.1053ZM72.3053 74.1053C72.3053 71.1411 57.8084 64.3789 44.0526 64.3789C30.2968 64.3789 15.8 71.1411 15.8 74.1053V79.2H72.3053M46.3684 0C47.6653 0 48.6842 1.01895 48.6842 2.31579V16.2105H53.3158V4.63158C56.5936 6.14853 59.3398 8.61563 61.1981 11.7127C63.0563 14.8098 63.9409 18.394 63.7368 22C63.7368 22 66.979 22.6484 67.2105 27.7895H20.8947C20.8947 22.6484 24.3684 22 24.3684 22C24.1644 18.394 25.0489 14.8098 26.9072 11.7127C28.7654 8.61563 31.5117 6.14853 34.7895 4.63158V16.2105H39.4211V2.31579C39.4211 1.01895 40.44 0 41.7368 0" fill="white"/>
</g>
<defs>
<clipPath id="clip0_851_452">
<rect width="88" height="88" fill="white"/>
</clipPath>
</defs>
</svg>
